<svg width="80" height="80" viewBox="0 0 80 80" fill="none" xmlns="http://www.w3.org/2000/svg">
<circle cx="40" cy="40" r="40" fill="#959595"/>
<path d="M40 47C43.866 47 47 43.866 47 40C47 36.134 43.866 33 40 33C36.134 33 33 36.134 33 40C33 43.866 36.134 47 40 47Z" stroke="white" stroke-width="2" stroke-miterlimit="10" stroke-linecap="square"/>
<path d="M62 43V37L55.6 36.466C55.1994 34.6962 54.4986 33.0082 53.528 31.475L57.683 26.565L53.435 22.322L48.525 26.477C46.9923 25.5044 45.3042 24.8019 43.534 24.4L43 18H37L36.466 24.4C34.6962 24.8006 33.0082 25.5014 31.475 26.472L26.565 22.317L22.322 26.565L26.477 31.475C25.5044 33.0077 24.8019 34.6958 24.4 36.466L18 37V43L24.4 43.534C24.8006 45.3038 25.5014 46.9918 26.472 48.525L22.317 53.435L26.56 57.678L31.47 53.523C33.0042 54.4961 34.6941 55.1986 36.466 55.6L37 62H43L43.534 55.595C45.3038 55.1944 46.9918 54.4936 48.525 53.523L53.435 57.678L57.678 53.435L53.523 48.525C54.4956 46.9923 55.1981 45.3042 55.6 43.534L62 43Z" stroke="white" stroke-width="2" stroke-miterlimit="10" stroke-linecap="square"/>
</svg>
