<svg width="24" height="24" viewBox="0 0 24 24" fill="none" xmlns="http://www.w3.org/2000/svg">
<path d="M19.288 6.8335L16.058 10.063C16.4609 10.9019 16.5934 11.8452 16.437 12.7626C16.2807 13.6799 15.8432 14.5261 15.1852 15.1842C14.5271 15.8422 13.681 16.2796 12.7636 16.436C11.8462 16.5923 10.9029 16.4599 10.064 16.057L7.28601 18.8355C8.74456 19.5872 10.3592 19.9861 12 20C17.623 20 21.7105 15.05 23.207 12.918C23.3943 12.6485 23.495 12.3283 23.4956 12C23.4962 11.6718 23.3968 11.3512 23.2105 11.081C22.1064 9.49002 20.7863 8.06047 19.288 6.8335Z" fill="#9F9F9F"/>
<path d="M0.787497 12.9125C1.89107 14.5066 3.21201 15.9386 4.712 17.167L7.9435 13.9355C7.54096 13.0967 7.40878 12.1537 7.56522 11.2366C7.72165 10.3195 8.15898 9.47361 8.8168 8.81573C9.47463 8.15786 10.3205 7.72046 11.2376 7.56395C12.1547 7.40743 13.0977 7.53953 13.9365 7.942L16.714 5.165C15.2556 4.41274 13.6409 4.01368 12 4C6.282 4 2.25 8.9555 0.782497 11.088C0.599815 11.3573 0.502529 11.6753 0.503331 12.0007C0.504134 12.3261 0.602988 12.6437 0.786997 12.912L0.787497 12.9125Z" fill="#9F9F9F"/>
<path d="M1.99999 22.4998C1.90111 22.4998 1.80446 22.4704 1.72226 22.4155C1.64005 22.3606 1.57598 22.2825 1.53815 22.1911C1.50031 22.0998 1.49041 21.9993 1.50969 21.9023C1.52898 21.8053 1.57658 21.7162 1.64649 21.6463L21.6465 1.6463C21.6926 1.59854 21.7478 1.56045 21.8088 1.53425C21.8698 1.50804 21.9354 1.49425 22.0018 1.49367C22.0682 1.49309 22.134 1.50575 22.1955 1.53089C22.2569 1.55603 22.3127 1.59315 22.3597 1.6401C22.4066 1.68705 22.4438 1.74287 22.4689 1.80432C22.494 1.86577 22.5067 1.93161 22.5061 1.998C22.5055 2.06439 22.4917 2.13 22.4655 2.191C22.4393 2.252 22.4012 2.30717 22.3535 2.3533L2.35348 22.3533C2.25974 22.4471 2.13258 22.4998 1.99999 22.4998Z" fill="#9F9F9F"/>
</svg>
