<svg width="80" height="80" viewBox="0 0 80 80" fill="none" xmlns="http://www.w3.org/2000/svg">
<circle cx="40" cy="40" r="40" fill="#F3F3F3"/>
<path d="M40.0001 36.6667C44.6025 36.6667 48.3334 32.9357 48.3334 28.3333C48.3334 23.731 44.6025 20 40.0001 20C35.3977 20 31.6667 23.731 31.6667 28.3333C31.6667 32.9357 35.3977 36.6667 40.0001 36.6667Z" fill="#212121"/>
<path d="M23.3334 60H56.6667C57.1088 60 57.5327 59.8244 57.8453 59.5118C58.1578 59.1993 58.3334 58.7754 58.3334 58.3333C58.3334 53.471 56.4019 48.8079 52.9637 45.3697C49.5255 41.9315 44.8624 40 40.0001 40C35.1378 40 30.4746 41.9315 27.0365 45.3697C23.5983 48.8079 21.6667 53.471 21.6667 58.3333C21.6667 58.7754 21.8423 59.1993 22.1549 59.5118C22.4675 59.8244 22.8914 60 23.3334 60Z" fill="#212121"/>
</svg>
